<svg width="24" height="24" viewBox="0 0 24 24" fill="none" xmlns="http://www.w3.org/2000/svg">
<path d="M12 15C13.6569 15 15 13.6569 15 12C15 10.3431 13.6569 9 12 9C10.3431 9 9 10.3431 9 12C9 13.6569 10.3431 15 12 15Z" stroke="currentColor" stroke-width="2" stroke-linecap="round" stroke-linejoin="round"/>
<path d="M19.4 15A1.65 1.65 0 0 0 21 13.35V10.65A1.65 1.65 0 0 0 19.4 9H18.82A6.87 6.87 0 0 0 17.5 6.5L17.9 6.1A1.65 1.65 0 0 0 17.9 3.75L16 1.85A1.65 1.65 0 0 0 13.65 1.85L13.25 2.25A6.87 6.87 0 0 0 10.75 1.5V0.9A1.65 1.65 0 0 0 9.1 0.75H6.4A1.65 1.65 0 0 0 4.75 2.4V3A6.87 6.87 0 0 0 3.4 5.5L3 5.1A1.65 1.65 0 0 0 0.65 5.1L2.55 7A1.65 1.65 0 0 0 2.55 9.35L2.95 9.75A6.87 6.87 0 0 0 2.2 12.25H1.6A1.65 1.65 0 0 0 0 13.9V16.6A1.65 1.65 0 0 0 1.6 18.25H2.2A6.87 6.87 0 0 0 3.5 20.75L3.1 21.15A1.65 1.65 0 0 0 3.1 23.5L5 25.4A1.65 1.65 0 0 0 7.35 25.4L7.75 25A6.87 6.87 0 0 0 10.25 25.75V26.35A1.65 1.65 0 0 0 11.9 28H14.6A1.65 1.65 0 0 0 16.25 26.35V25.75A6.87 6.87 0 0 0 17.6 24.5L18 24.9A1.65 1.65 0 0 0 20.35 24.9L18.45 23A1.65 1.65 0 0 0 18.45 20.65L18.05 20.25A6.87 6.87 0 0 0 18.8 17.75H19.4Z" stroke="currentColor" stroke-width="2" stroke-linecap="round" stroke-linejoin="round"/>
</svg>


